<svg xmlns="http://www.w3.org/2000/svg" viewBox="0 0 1200 1800" role="img" aria-label="Original placeholder — cinematic water hero">
  <defs>
    <linearGradient id="nightsky" x1="0" y1="0" x2="0" y2="1">
      <stop offset="0%" stop-color="#0b1c28"/>
      <stop offset="28%" stop-color="#146078"/>
      <stop offset="58%" stop-color="#2aa0c4"/>
      <stop offset="100%" stop-color="#0a2430"/>
    </linearGradient>
    <radialGradient id="goldglow" cx="50%" cy="30%" r="45%">
      <stop offset="0%" stop-color="#f4efe4" stop-opacity="0.55"/>
      <stop offset="50%" stop-color="#d4af6a" stop-opacity="0.22"/>
      <stop offset="100%" stop-color="#070809" stop-opacity="0"/>
    </radialGradient>
  </defs>
  <rect width="1200" height="1800" fill="url(#nightsky)"/>
  <rect width="1200" height="1800" fill="url(#goldglow)"/>
  <path d="M0 780 C 180 720 380 860 600 790 S 980 740 1200 820 V1800 H0 Z" fill="#7ec8e3" opacity="0.35"/>
  <path d="M0 980 C 180 920 380 1060 600 990 S 980 940 1200 1020 V1800 H0 Z" fill="#1a6b8a" opacity="0.7"/>
  <path d="M0 1220 C 220 1160 460 1300 720 1230 S 1040 1180 1200 1260 V1800 H0 Z" fill="#0c2430"/>
  <path d="M360 1040 L 840 1028 L 800 1110 L 400 1114 Z" fill="#11141a"/>
  <path d="M460 1032 L 760 1026 L 720 940 H 510 Z" fill="#1b2028" stroke="#d4af6a" stroke-width="2"/>
  <circle cx="540" cy="990" r="7" fill="#f4efe4"/>
  <circle cx="600" cy="986" r="7" fill="#d4af6a"/>
  <circle cx="660" cy="992" r="7" fill="#f4efe4"/>
  <line x1="600" y1="40" x2="600" y2="1760" stroke="#d4af6a" stroke-width="1.2" opacity="0.55"/>
</svg>
